<svg xmlns="http://www.w3.org/2000/svg" xmlns:xlink="http://www.w3.org/1999/xlink" width="1020" zoomAndPan="magnify" viewBox="0 0 765 1439.999935" height="1920" preserveAspectRatio="xMidYMid meet" version="1.0"><defs><clipPath id="8be057ec99"><path d="M 135 465 L 649.5625 465 L 649.5625 980 L 135 980 Z M 135 465 " clip-rule="nonzero"/></clipPath></defs><g clip-path="url(#8be057ec99)"><path fill="#485c84" d="M 392.609375 979.144531 C 388.40625 979.144531 384.203125 979.042969 380.003906 978.835938 C 375.804688 978.632812 371.613281 978.324219 367.425781 977.910156 C 363.242188 977.5 359.070312 976.984375 354.910156 976.371094 C 350.75 975.753906 346.609375 975.035156 342.484375 974.214844 C 338.363281 973.394531 334.261719 972.476562 330.179688 971.453125 C 326.101562 970.433594 322.050781 969.3125 318.027344 968.09375 C 314.003906 966.875 310.011719 965.554688 306.050781 964.140625 C 302.09375 962.722656 298.171875 961.210938 294.285156 959.601562 C 290.398438 957.992188 286.558594 956.289062 282.753906 954.492188 C 278.953125 952.695312 275.199219 950.808594 271.492188 948.824219 C 267.78125 946.84375 264.125 944.773438 260.515625 942.609375 C 256.910156 940.449219 253.359375 938.199219 249.863281 935.867188 C 246.367188 933.53125 242.929688 931.109375 239.550781 928.605469 C 236.171875 926.101562 232.859375 923.515625 229.609375 920.847656 C 226.359375 918.179688 223.175781 915.4375 220.058594 912.613281 C 216.941406 909.789062 213.898438 906.890625 210.925781 903.917969 C 207.949219 900.945312 205.050781 897.902344 202.226562 894.785156 C 199.402344 891.671875 196.65625 888.488281 193.988281 885.238281 C 191.320312 881.988281 188.734375 878.671875 186.230469 875.296875 C 183.722656 871.917969 181.304688 868.484375 178.96875 864.988281 C 176.628906 861.492188 174.382812 857.941406 172.21875 854.332031 C 170.058594 850.726562 167.984375 847.070312 166.003906 843.359375 C 164.019531 839.652344 162.128906 835.898438 160.332031 832.097656 C 158.535156 828.296875 156.828125 824.453125 155.21875 820.570312 C 153.609375 816.683594 152.097656 812.761719 150.679688 808.804688 C 149.261719 804.84375 147.945312 800.855469 146.722656 796.828125 C 145.503906 792.804688 144.382812 788.753906 143.359375 784.675781 C 142.335938 780.597656 141.414062 776.496094 140.59375 772.371094 C 139.773438 768.246094 139.054688 764.105469 138.4375 759.945312 C 137.820312 755.789062 137.304688 751.617188 136.894531 747.429688 C 136.480469 743.246094 136.171875 739.054688 135.964844 734.855469 C 135.757812 730.65625 135.65625 726.453125 135.65625 722.246094 C 135.65625 718.042969 135.757812 713.839844 135.964844 709.640625 C 136.171875 705.441406 136.480469 701.25 136.890625 697.0625 C 137.304688 692.878906 137.816406 688.707031 138.433594 684.546875 C 139.050781 680.386719 139.769531 676.246094 140.589844 672.121094 C 141.410156 668 142.332031 663.898438 143.351562 659.816406 C 144.375 655.738281 145.496094 651.6875 146.714844 647.664062 C 147.933594 643.640625 149.253906 639.648438 150.671875 635.691406 C 152.085938 631.730469 153.597656 627.808594 155.207031 623.925781 C 156.816406 620.039062 158.519531 616.195312 160.320312 612.394531 C 162.117188 608.59375 164.007812 604.839844 165.988281 601.128906 C 167.96875 597.421875 170.042969 593.765625 172.203125 590.15625 C 174.367188 586.550781 176.613281 583 178.949219 579.503906 C 181.285156 576.007812 183.707031 572.570312 186.210938 569.191406 C 188.714844 565.816406 191.300781 562.5 193.96875 559.25 C 196.636719 556 199.382812 552.816406 202.207031 549.703125 C 205.03125 546.585938 207.929688 543.542969 210.902344 540.570312 C 213.875 537.59375 216.921875 534.695312 220.035156 531.875 C 223.152344 529.050781 226.335938 526.304688 229.585938 523.636719 C 232.835938 520.96875 236.148438 518.382812 239.527344 515.878906 C 242.90625 513.375 246.339844 510.953125 249.835938 508.617188 C 253.332031 506.28125 256.886719 504.03125 260.492188 501.871094 C 264.097656 499.707031 267.757812 497.636719 271.464844 495.65625 C 275.171875 493.671875 278.925781 491.78125 282.730469 489.984375 C 286.53125 488.1875 290.371094 486.484375 294.257812 484.875 C 298.144531 483.265625 302.066406 481.753906 306.023438 480.335938 C 309.984375 478.921875 313.972656 477.601562 318 476.382812 C 322.023438 475.160156 326.074219 474.039062 330.152344 473.019531 C 334.230469 471.996094 338.332031 471.074219 342.457031 470.253906 C 346.582031 469.433594 350.722656 468.71875 354.882812 468.101562 C 359.042969 467.484375 363.214844 466.96875 367.398438 466.558594 C 371.582031 466.144531 375.773438 465.835938 379.972656 465.628906 C 384.175781 465.425781 388.375 465.320312 392.582031 465.320312 C 396.785156 465.320312 400.988281 465.425781 405.1875 465.632812 C 409.386719 465.839844 413.582031 466.148438 417.765625 466.558594 C 421.949219 466.972656 426.121094 467.488281 430.28125 468.105469 C 434.441406 468.722656 438.582031 469.441406 442.707031 470.261719 C 446.828125 471.082031 450.929688 472.003906 455.011719 473.027344 C 459.089844 474.046875 463.140625 475.167969 467.164062 476.390625 C 471.1875 477.609375 475.179688 478.929688 479.136719 480.347656 C 483.097656 481.761719 487.019531 483.277344 490.902344 484.886719 C 494.789062 486.496094 498.628906 488.199219 502.429688 489.996094 C 506.234375 491.796875 509.988281 493.6875 513.695312 495.667969 C 517.402344 497.652344 521.0625 499.722656 524.667969 501.886719 C 528.273438 504.046875 531.824219 506.296875 535.320312 508.632812 C 538.816406 510.96875 542.253906 513.390625 545.628906 515.894531 C 549.007812 518.402344 552.320312 520.988281 555.570312 523.65625 C 558.820312 526.324219 562.003906 529.070312 565.121094 531.894531 C 568.234375 534.71875 571.277344 537.617188 574.25 540.589844 C 577.222656 543.5625 580.121094 546.609375 582.945312 549.722656 C 585.769531 552.839844 588.515625 556.023438 591.183594 559.273438 C 593.847656 562.523438 596.433594 565.839844 598.9375 569.21875 C 601.445312 572.59375 603.863281 576.03125 606.199219 579.527344 C 608.535156 583.023438 610.785156 586.578125 612.945312 590.183594 C 615.105469 593.789062 617.175781 597.449219 619.160156 601.15625 C 621.140625 604.867188 623.03125 608.621094 624.828125 612.421875 C 626.625 616.222656 628.328125 620.066406 629.9375 623.953125 C 631.542969 627.835938 633.058594 631.757812 634.472656 635.71875 C 635.890625 639.675781 637.207031 643.667969 638.425781 647.691406 C 639.648438 651.714844 640.765625 655.769531 641.789062 659.847656 C 642.808594 663.925781 643.730469 668.027344 644.550781 672.152344 C 645.371094 676.277344 646.085938 680.417969 646.703125 684.578125 C 647.320312 688.738281 647.832031 692.910156 648.246094 697.09375 C 648.65625 701.277344 648.964844 705.46875 649.171875 709.671875 C 649.375 713.871094 649.480469 718.074219 649.476562 722.277344 C 649.472656 726.480469 649.363281 730.679688 649.152344 734.875 C 648.941406 739.074219 648.628906 743.261719 648.210938 747.445312 C 647.796875 751.625 647.277344 755.796875 646.65625 759.953125 C 646.035156 764.109375 645.3125 768.246094 644.492188 772.367188 C 643.667969 776.488281 642.742188 780.585938 641.71875 784.664062 C 640.695312 788.738281 639.570312 792.785156 638.347656 796.808594 C 637.125 800.828125 635.804688 804.816406 634.386719 808.773438 C 632.964844 812.726562 631.453125 816.644531 629.839844 820.527344 C 628.230469 824.410156 626.527344 828.25 624.726562 832.046875 C 622.929688 835.84375 621.039062 839.597656 619.054688 843.300781 C 617.074219 847.007812 615 850.660156 612.839844 854.265625 C 610.675781 857.867188 608.429688 861.417969 606.09375 864.910156 C 603.757812 868.40625 601.335938 871.839844 598.832031 875.214844 C 596.328125 878.589844 593.742188 881.898438 591.078125 885.148438 C 588.410156 888.394531 585.664062 891.578125 582.84375 894.691406 C 580.019531 897.804688 577.125 900.847656 574.152344 903.816406 C 571.179688 906.789062 568.136719 909.6875 565.023438 912.507812 C 561.910156 915.332031 558.730469 918.074219 555.480469 920.742188 C 552.234375 923.410156 548.921875 925.996094 545.546875 928.5 C 542.171875 931.003906 538.738281 933.421875 535.246094 935.757812 C 531.75 938.09375 528.203125 940.34375 524.597656 942.503906 C 520.996094 944.667969 517.339844 946.738281 513.636719 948.722656 C 509.929688 950.703125 506.179688 952.59375 502.378906 954.394531 C 498.582031 956.191406 494.742188 957.898438 490.863281 959.507812 C 486.980469 961.117188 483.0625 962.632812 479.105469 964.050781 C 475.148438 965.46875 471.160156 966.789062 467.140625 968.011719 C 463.121094 969.234375 459.070312 970.359375 454.996094 971.382812 C 450.921875 972.410156 446.824219 973.332031 442.703125 974.15625 C 438.582031 974.980469 434.441406 975.703125 430.285156 976.324219 C 426.128906 976.945312 421.960938 977.460938 417.777344 977.878906 C 413.597656 978.296875 409.40625 978.609375 405.210938 978.820312 C 401.011719 979.03125 396.8125 979.140625 392.609375 979.144531 Z M 392.609375 469.839844 C 388.480469 469.839844 384.351562 469.941406 380.222656 470.144531 C 376.097656 470.34375 371.980469 470.648438 367.867188 471.050781 C 363.753906 471.457031 359.65625 471.960938 355.570312 472.566406 C 351.484375 473.171875 347.414062 473.878906 343.359375 474.683594 C 339.308594 475.488281 335.277344 476.394531 331.269531 477.394531 C 327.261719 478.398438 323.28125 479.5 319.328125 480.699219 C 315.375 481.898438 311.453125 483.191406 307.5625 484.582031 C 303.671875 485.976562 299.820312 487.460938 296 489.042969 C 292.183594 490.621094 288.40625 492.292969 284.671875 494.058594 C 280.9375 495.828125 277.25 497.683594 273.605469 499.628906 C 269.960938 501.578125 266.367188 503.613281 262.820312 505.734375 C 259.277344 507.859375 255.789062 510.066406 252.351562 512.363281 C 248.917969 514.65625 245.539062 517.035156 242.222656 519.496094 C 238.902344 521.957031 235.644531 524.496094 232.453125 527.117188 C 229.257812 529.738281 226.128906 532.433594 223.070312 535.210938 C 220.007812 537.984375 217.015625 540.832031 214.09375 543.75 C 211.171875 546.671875 208.324219 549.664062 205.546875 552.722656 C 202.773438 555.785156 200.074219 558.914062 197.453125 562.105469 C 194.832031 565.296875 192.289062 568.554688 189.828125 571.871094 C 187.367188 575.191406 184.988281 578.566406 182.691406 582.003906 C 180.398438 585.4375 178.1875 588.925781 176.0625 592.46875 C 173.9375 596.011719 171.902344 599.605469 169.953125 603.25 C 168.003906 606.894531 166.148438 610.582031 164.382812 614.316406 C 162.613281 618.050781 160.941406 621.828125 159.359375 625.644531 C 157.777344 629.460938 156.289062 633.3125 154.898438 637.203125 C 153.503906 641.09375 152.210938 645.015625 151.007812 648.96875 C 149.808594 652.921875 148.707031 656.902344 147.703125 660.910156 C 146.699219 664.917969 145.792969 668.945312 144.988281 673 C 144.179688 677.050781 143.472656 681.121094 142.867188 685.207031 C 142.261719 689.292969 141.753906 693.390625 141.347656 697.503906 C 140.941406 701.617188 140.640625 705.734375 140.4375 709.859375 C 140.234375 713.988281 140.128906 718.117188 140.128906 722.246094 C 140.128906 726.378906 140.230469 730.507812 140.433594 734.632812 C 140.636719 738.761719 140.9375 742.878906 141.34375 746.992188 C 141.746094 751.105469 142.253906 755.203125 142.859375 759.289062 C 143.464844 763.375 144.167969 767.445312 144.976562 771.496094 C 145.78125 775.550781 146.683594 779.582031 147.6875 783.589844 C 148.691406 787.59375 149.792969 791.578125 150.992188 795.53125 C 152.191406 799.484375 153.484375 803.40625 154.878906 807.296875 C 156.269531 811.1875 157.753906 815.039062 159.335938 818.855469 C 160.917969 822.675781 162.589844 826.449219 164.355469 830.183594 C 166.121094 833.921875 167.976562 837.609375 169.925781 841.253906 C 171.871094 844.898438 173.910156 848.492188 176.03125 852.035156 C 178.15625 855.578125 180.363281 859.066406 182.660156 862.503906 C 184.953125 865.9375 187.332031 869.316406 189.792969 872.632812 C 192.253906 875.953125 194.796875 879.210938 197.414062 882.402344 C 200.035156 885.597656 202.734375 888.726562 205.507812 891.785156 C 208.28125 894.847656 211.128906 897.839844 214.050781 900.761719 C 216.972656 903.683594 219.964844 906.53125 223.023438 909.304688 C 226.085938 912.082031 229.210938 914.777344 232.40625 917.398438 C 235.597656 920.019531 238.855469 922.5625 242.171875 925.023438 C 245.492188 927.484375 248.867188 929.863281 252.304688 932.160156 C 255.738281 934.453125 259.226562 936.664062 262.769531 938.789062 C 266.316406 940.914062 269.90625 942.949219 273.550781 944.898438 C 277.195312 946.84375 280.882812 948.703125 284.617188 950.46875 C 288.355469 952.234375 292.128906 953.910156 295.945312 955.492188 C 299.761719 957.074219 303.617188 958.558594 307.507812 959.953125 C 311.394531 961.34375 315.316406 962.640625 319.269531 963.839844 C 323.226562 965.039062 327.207031 966.140625 331.210938 967.144531 C 335.21875 968.148438 339.25 969.054688 343.300781 969.859375 C 347.355469 970.667969 351.421875 971.371094 355.511719 971.980469 C 359.597656 972.585938 363.695312 973.089844 367.808594 973.496094 C 371.917969 973.902344 376.039062 974.207031 380.164062 974.410156 C 384.292969 974.613281 388.421875 974.714844 392.550781 974.714844 C 396.683594 974.714844 400.8125 974.613281 404.9375 974.410156 C 409.066406 974.207031 413.183594 973.90625 417.296875 973.5 C 421.40625 973.09375 425.507812 972.589844 429.59375 971.984375 C 433.679688 971.378906 437.75 970.671875 441.800781 969.867188 C 445.855469 969.058594 449.882812 968.15625 453.890625 967.152344 C 457.898438 966.148438 461.878906 965.046875 465.832031 963.847656 C 469.785156 962.648438 473.707031 961.351562 477.597656 959.960938 C 481.488281 958.570312 485.34375 957.082031 489.160156 955.503906 C 492.976562 953.921875 496.753906 952.25 500.488281 950.480469 C 504.222656 948.714844 507.910156 946.859375 511.554688 944.910156 C 515.199219 942.964844 518.792969 940.929688 522.335938 938.804688 C 525.878906 936.679688 529.371094 934.472656 532.804688 932.175781 C 536.242188 929.878906 539.617188 927.503906 542.9375 925.042969 C 546.253906 922.582031 549.511719 920.039062 552.703125 917.417969 C 555.898438 914.796875 559.023438 912.101562 562.085938 909.324219 C 565.148438 906.550781 568.140625 903.703125 571.0625 900.78125 C 573.980469 897.859375 576.832031 894.871094 579.605469 891.808594 C 582.378906 888.746094 585.078125 885.621094 587.699219 882.425781 C 590.320312 879.234375 592.859375 875.976562 595.320312 872.660156 C 597.78125 869.339844 600.160156 865.964844 602.457031 862.527344 C 604.753906 859.09375 606.960938 855.605469 609.085938 852.058594 C 611.210938 848.515625 613.246094 844.921875 615.195312 841.277344 C 617.140625 837.636719 619 833.945312 620.765625 830.210938 C 622.53125 826.476562 624.203125 822.699219 625.785156 818.882812 C 627.367188 815.066406 628.855469 811.214844 630.246094 807.324219 C 631.636719 803.433594 632.933594 799.511719 634.132812 795.558594 C 635.332031 791.605469 636.433594 787.625 637.4375 783.617188 C 638.441406 779.609375 639.347656 775.578125 640.152344 771.527344 C 640.957031 767.476562 641.664062 763.40625 642.269531 759.320312 C 642.875 755.230469 643.382812 751.132812 643.789062 747.023438 C 644.191406 742.910156 644.496094 738.789062 644.699219 734.664062 C 644.902344 730.539062 645.003906 726.410156 645.003906 722.277344 C 645 718.148438 644.894531 714.019531 644.6875 709.894531 C 644.480469 705.773438 644.171875 701.65625 643.761719 697.546875 C 643.355469 693.4375 642.847656 689.339844 642.238281 685.253906 C 641.628906 681.171875 640.917969 677.101562 640.109375 673.054688 C 639.300781 669.003906 638.394531 664.976562 637.386719 660.972656 C 636.378906 656.964844 635.277344 652.988281 634.074219 649.035156 C 632.875 645.085938 631.578125 641.167969 630.183594 637.277344 C 628.789062 633.390625 627.300781 629.539062 625.71875 625.726562 C 624.136719 621.910156 622.464844 618.136719 620.695312 614.40625 C 618.929688 610.671875 617.070312 606.988281 615.125 603.34375 C 613.175781 599.703125 611.140625 596.113281 609.015625 592.570312 C 606.890625 589.03125 604.683594 585.542969 602.386719 582.109375 C 600.089844 578.675781 597.714844 575.300781 595.253906 571.984375 C 592.792969 568.667969 590.253906 565.414062 587.632812 562.222656 C 585.011719 559.027344 582.316406 555.902344 579.542969 552.84375 C 576.769531 549.78125 573.921875 546.792969 571.003906 543.871094 C 568.082031 540.953125 565.09375 538.105469 562.035156 535.332031 C 558.976562 532.558594 555.847656 529.859375 552.65625 527.238281 C 549.464844 524.617188 546.210938 522.078125 542.894531 519.617188 C 539.578125 517.15625 536.207031 514.777344 532.773438 512.480469 C 529.339844 510.1875 525.851562 507.976562 522.3125 505.851562 C 518.769531 503.726562 515.179688 501.691406 511.539062 499.742188 C 507.898438 497.792969 504.210938 495.933594 500.480469 494.167969 C 496.746094 492.398438 492.972656 490.722656 489.160156 489.140625 C 485.34375 487.558594 481.496094 486.070312 477.605469 484.675781 C 473.71875 483.28125 469.800781 481.984375 465.851562 480.78125 C 461.898438 479.578125 457.921875 478.476562 453.917969 477.46875 C 449.910156 476.460938 445.882812 475.554688 441.835938 474.742188 C 437.785156 473.933594 433.71875 473.222656 429.632812 472.613281 C 425.550781 472.003906 421.453125 471.496094 417.34375 471.085938 C 413.234375 470.675781 409.117188 470.367188 404.992188 470.160156 C 400.867188 469.953125 396.742188 469.847656 392.609375 469.839844 Z M 392.609375 469.839844 " fill-opacity="1" fill-rule="nonzero"/></g><path fill="#485c84" d="M 392.609375 953.144531 C 388.839844 953.140625 385.066406 953.042969 381.300781 952.855469 C 377.53125 952.667969 373.769531 952.386719 370.015625 952.011719 C 366.261719 951.640625 362.515625 951.175781 358.785156 950.617188 C 355.054688 950.058594 351.335938 949.410156 347.636719 948.671875 C 343.9375 947.933594 340.257812 947.101562 336.597656 946.183594 C 332.941406 945.261719 329.304688 944.253906 325.695312 943.15625 C 322.085938 942.058594 318.503906 940.871094 314.953125 939.597656 C 311.402344 938.324219 307.882812 936.964844 304.398438 935.515625 C 300.914062 934.070312 297.46875 932.539062 294.058594 930.921875 C 290.648438 929.304688 287.28125 927.609375 283.953125 925.828125 C 280.628906 924.046875 277.347656 922.183594 274.113281 920.242188 C 270.878906 918.300781 267.691406 916.277344 264.558594 914.179688 C 261.421875 912.082031 258.339844 909.90625 255.308594 907.660156 C 252.28125 905.410156 249.308594 903.085938 246.394531 900.691406 C 243.480469 898.292969 240.625 895.828125 237.832031 893.292969 C 235.035156 890.757812 232.308594 888.15625 229.640625 885.484375 C 226.972656 882.816406 224.375 880.082031 221.84375 877.285156 C 219.3125 874.488281 216.847656 871.628906 214.457031 868.710938 C 212.066406 865.792969 209.746094 862.820312 207.5 859.785156 C 205.253906 856.753906 203.085938 853.667969 200.988281 850.53125 C 198.894531 847.394531 196.878906 844.203125 194.941406 840.96875 C 193.003906 837.730469 191.144531 834.449219 189.367188 831.117188 C 187.59375 827.789062 185.898438 824.421875 184.285156 821.007812 C 182.675781 817.597656 181.148438 814.148438 179.707031 810.660156 C 178.265625 807.175781 176.90625 803.65625 175.636719 800.101562 C 174.367188 796.546875 173.1875 792.964844 172.09375 789.355469 C 171 785.746094 169.996094 782.109375 169.082031 778.449219 C 168.164062 774.789062 167.339844 771.105469 166.605469 767.40625 C 165.871094 763.707031 165.226562 759.988281 164.675781 756.257812 C 164.125 752.523438 163.664062 748.78125 163.292969 745.023438 C 162.925781 741.269531 162.648438 737.507812 162.464844 733.738281 C 162.28125 729.96875 162.191406 726.199219 162.191406 722.425781 C 162.195312 718.652344 162.289062 714.882812 162.472656 711.113281 C 162.660156 707.347656 162.9375 703.585938 163.308594 699.828125 C 163.679688 696.074219 164.144531 692.332031 164.699219 688.597656 C 165.253906 684.867188 165.898438 681.152344 166.636719 677.449219 C 167.371094 673.75 168.199219 670.070312 169.117188 666.410156 C 170.035156 662.75 171.042969 659.113281 172.136719 655.503906 C 173.234375 651.894531 174.417969 648.3125 175.6875 644.761719 C 176.960938 641.207031 178.320312 637.6875 179.761719 634.203125 C 181.207031 630.71875 182.738281 627.269531 184.351562 623.859375 C 185.964844 620.449219 187.660156 617.078125 189.4375 613.753906 C 191.21875 610.425781 193.078125 607.144531 195.019531 603.90625 C 196.957031 600.671875 198.976562 597.484375 201.074219 594.347656 C 203.167969 591.210938 205.339844 588.125 207.589844 585.097656 C 209.835938 582.066406 212.15625 579.09375 214.550781 576.175781 C 216.945312 573.257812 219.410156 570.402344 221.941406 567.609375 C 224.476562 564.8125 227.078125 562.082031 229.746094 559.414062 C 232.414062 556.742188 235.144531 554.144531 237.941406 551.609375 C 240.738281 549.074219 243.59375 546.613281 246.507812 544.21875 C 249.425781 541.824219 252.398438 539.503906 255.429688 537.253906 C 258.460938 535.007812 261.542969 532.835938 264.679688 530.738281 C 267.816406 528.644531 271.003906 526.625 274.242188 524.683594 C 277.476562 522.746094 280.757812 520.882812 284.085938 519.105469 C 287.414062 517.328125 290.78125 515.628906 294.191406 514.015625 C 297.605469 512.402344 301.050781 510.875 304.539062 509.429688 C 308.023438 507.984375 311.542969 506.625 315.09375 505.355469 C 318.648438 504.082031 322.226562 502.898438 325.839844 501.804688 C 329.449219 500.707031 333.082031 499.699219 336.742188 498.78125 C 340.402344 497.867188 344.082031 497.039062 347.785156 496.300781 C 351.484375 495.5625 355.199219 494.917969 358.933594 494.363281 C 362.664062 493.808594 366.410156 493.347656 370.164062 492.976562 C 373.917969 492.605469 377.679688 492.324219 381.449219 492.140625 C 385.214844 491.953125 388.988281 491.859375 392.761719 491.859375 C 396.535156 491.855469 400.304688 491.949219 404.074219 492.132812 C 407.839844 492.316406 411.605469 492.59375 415.359375 492.960938 C 419.113281 493.328125 422.859375 493.789062 426.589844 494.339844 C 430.324219 494.894531 434.039062 495.539062 437.738281 496.273438 C 441.441406 497.007812 445.121094 497.832031 448.78125 498.746094 C 452.441406 499.660156 456.078125 500.667969 459.6875 501.761719 C 463.300781 502.855469 466.882812 504.035156 470.433594 505.304688 C 473.988281 506.574219 477.507812 507.929688 480.996094 509.371094 C 484.480469 510.8125 487.929688 512.339844 491.34375 513.953125 C 494.753906 515.5625 498.125 517.257812 501.453125 519.035156 C 504.78125 520.8125 508.0625 522.667969 511.300781 524.609375 C 514.539062 526.546875 517.726562 528.5625 520.863281 530.65625 C 524.003906 532.75 527.089844 534.921875 530.121094 537.167969 C 533.152344 539.414062 536.128906 541.730469 539.046875 544.125 C 541.964844 546.515625 544.820312 548.976562 547.617188 551.507812 C 550.414062 554.042969 553.148438 556.640625 555.820312 559.308594 C 558.488281 561.972656 561.089844 564.703125 563.628906 567.496094 C 566.164062 570.289062 568.628906 573.144531 571.023438 576.058594 C 573.417969 578.976562 575.742188 581.949219 577.992188 584.976562 C 580.242188 588.003906 582.417969 591.085938 584.515625 594.222656 C 586.613281 597.359375 588.632812 600.542969 590.574219 603.777344 C 592.519531 607.015625 594.378906 610.292969 596.160156 613.621094 C 597.941406 616.945312 599.640625 620.316406 601.257812 623.722656 C 602.871094 627.132812 604.402344 630.582031 605.851562 634.066406 C 607.296875 637.550781 608.65625 641.070312 609.929688 644.621094 C 611.207031 648.171875 612.390625 651.753906 613.488281 655.363281 C 614.589844 658.972656 615.597656 662.605469 616.515625 666.265625 C 617.4375 669.925781 618.265625 673.605469 619.007812 677.304688 C 619.746094 681.003906 620.394531 684.71875 620.949219 688.453125 C 621.507812 692.183594 621.972656 695.925781 622.347656 699.679688 C 622.71875 703.433594 623 707.195312 623.191406 710.964844 C 623.378906 714.734375 623.472656 718.503906 623.476562 722.277344 C 623.476562 726.054688 623.382812 729.832031 623.199219 733.605469 C 623.011719 737.378906 622.734375 741.144531 622.363281 744.90625 C 621.992188 748.664062 621.527344 752.414062 620.972656 756.152344 C 620.417969 759.886719 619.773438 763.609375 619.035156 767.3125 C 618.296875 771.019531 617.46875 774.703125 616.550781 778.371094 C 615.632812 782.035156 614.625 785.675781 613.527344 789.289062 C 612.429688 792.90625 611.246094 796.492188 609.972656 800.046875 C 608.699219 803.605469 607.339844 807.128906 605.890625 810.621094 C 604.445312 814.109375 602.914062 817.5625 601.300781 820.976562 C 599.683594 824.394531 597.984375 827.765625 596.203125 831.097656 C 594.421875 834.429688 592.5625 837.714844 590.617188 840.957031 C 588.675781 844.199219 586.65625 847.386719 584.554688 850.53125 C 582.457031 853.671875 580.28125 856.757812 578.03125 859.792969 C 575.78125 862.828125 573.457031 865.804688 571.058594 868.726562 C 568.664062 871.644531 566.195312 874.507812 563.660156 877.304688 C 561.121094 880.105469 558.515625 882.839844 555.847656 885.511719 C 553.175781 888.183594 550.4375 890.789062 547.640625 893.324219 C 544.839844 895.863281 541.980469 898.328125 539.058594 900.726562 C 536.140625 903.125 533.160156 905.445312 530.128906 907.699219 C 527.09375 909.949219 524.003906 912.125 520.863281 914.222656 C 517.722656 916.320312 514.53125 918.34375 511.289062 920.285156 C 508.050781 922.226562 504.765625 924.089844 501.433594 925.871094 C 498.101562 927.652344 494.726562 929.351562 491.3125 930.964844 C 487.898438 932.582031 484.445312 934.113281 480.953125 935.558594 C 477.464844 937.003906 473.9375 938.363281 470.382812 939.636719 C 466.824219 940.910156 463.238281 942.097656 459.625 943.191406 C 456.007812 944.289062 452.367188 945.296875 448.703125 946.21875 C 445.039062 947.136719 441.355469 947.964844 437.648438 948.699219 C 433.941406 949.4375 430.222656 950.085938 426.484375 950.640625 C 422.746094 951.195312 419 951.65625 415.238281 952.027344 C 411.480469 952.398438 407.710938 952.679688 403.9375 952.863281 C 400.164062 953.050781 396.390625 953.144531 392.609375 953.144531 Z M 392.609375 509.757812 C 389.128906 509.761719 385.648438 509.851562 382.171875 510.027344 C 378.695312 510.199219 375.222656 510.460938 371.761719 510.804688 C 368.296875 511.148438 364.839844 511.578125 361.398438 512.09375 C 357.953125 512.609375 354.527344 513.207031 351.113281 513.890625 C 347.699219 514.574219 344.300781 515.339844 340.925781 516.1875 C 337.550781 517.039062 334.195312 517.96875 330.863281 518.984375 C 327.535156 520 324.230469 521.09375 320.953125 522.269531 C 317.675781 523.445312 314.429688 524.703125 311.214844 526.039062 C 308 527.375 304.820312 528.789062 301.671875 530.28125 C 298.527344 531.773438 295.421875 533.339844 292.351562 534.984375 C 289.28125 536.628906 286.257812 538.347656 283.273438 540.140625 C 280.285156 541.933594 277.347656 543.800781 274.457031 545.738281 C 271.5625 547.671875 268.71875 549.679688 265.925781 551.757812 C 263.128906 553.835938 260.386719 555.980469 257.699219 558.191406 C 255.011719 560.402344 252.378906 562.679688 249.800781 565.019531 C 247.222656 567.359375 244.703125 569.761719 242.246094 572.226562 C 239.785156 574.691406 237.386719 577.214844 235.054688 579.796875 C 232.71875 582.378906 230.445312 585.019531 228.242188 587.710938 C 226.035156 590.40625 223.894531 593.152344 221.824219 595.949219 C 219.753906 598.75 217.753906 601.597656 215.820312 604.492188 C 213.890625 607.390625 212.03125 610.332031 210.246094 613.320312 C 208.457031 616.308594 206.746094 619.339844 205.105469 622.414062 C 203.46875 625.484375 201.90625 628.59375 200.421875 631.746094 C 198.9375 634.894531 197.53125 638.078125 196.199219 641.292969 C 194.871094 644.511719 193.621094 647.761719 192.453125 651.039062 C 191.285156 654.320312 190.195312 657.625 189.1875 660.960938 C 188.179688 664.292969 187.257812 667.648438 186.414062 671.027344 C 185.570312 674.402344 184.8125 677.800781 184.136719 681.214844 C 183.460938 684.632812 182.871094 688.0625 182.363281 691.507812 C 181.855469 694.953125 181.433594 698.40625 181.09375 701.871094 C 180.757812 705.335938 180.503906 708.808594 180.335938 712.285156 C 180.171875 715.761719 180.089844 719.242188 180.09375 722.726562 C 180.097656 726.207031 180.183594 729.6875 180.359375 733.164062 C 180.535156 736.640625 180.792969 740.113281 181.140625 743.578125 C 181.484375 747.039062 181.914062 750.496094 182.429688 753.9375 C 182.941406 757.382812 183.539062 760.8125 184.222656 764.226562 C 184.90625 767.640625 185.671875 771.035156 186.523438 774.410156 C 187.371094 777.785156 188.304688 781.140625 189.316406 784.472656 C 190.332031 787.800781 191.425781 791.105469 192.605469 794.382812 C 193.78125 797.660156 195.035156 800.90625 196.371094 804.121094 C 197.707031 807.335938 199.121094 810.515625 200.613281 813.664062 C 202.105469 816.808594 203.671875 819.914062 205.316406 822.984375 C 206.960938 826.054688 208.679688 829.082031 210.476562 832.066406 C 212.269531 835.050781 214.132812 837.988281 216.070312 840.878906 C 218.007812 843.773438 220.015625 846.617188 222.09375 849.410156 C 224.167969 852.207031 226.3125 854.949219 228.523438 857.636719 C 230.738281 860.324219 233.011719 862.960938 235.351562 865.535156 C 237.695312 868.113281 240.097656 870.632812 242.5625 873.089844 C 245.027344 875.550781 247.550781 877.949219 250.132812 880.285156 C 252.714844 882.617188 255.351562 884.890625 258.046875 887.09375 C 260.738281 889.300781 263.484375 891.441406 266.285156 893.511719 C 269.082031 895.582031 271.929688 897.582031 274.828125 899.515625 C 277.726562 901.445312 280.667969 903.304688 283.65625 905.089844 C 286.644531 906.878906 289.675781 908.589844 292.746094 910.230469 C 295.820312 911.867188 298.929688 913.429688 302.078125 914.914062 C 305.226562 916.398438 308.410156 917.804688 311.628906 919.136719 C 314.847656 920.464844 318.09375 921.714844 321.375 922.882812 C 324.65625 924.054688 327.960938 925.140625 331.292969 926.148438 C 334.625 927.15625 337.980469 928.082031 341.359375 928.921875 C 344.738281 929.765625 348.136719 930.523438 351.550781 931.199219 C 354.964844 931.875 358.394531 932.46875 361.839844 932.972656 C 365.285156 933.480469 368.738281 933.902344 372.207031 934.242188 C 375.671875 934.578125 379.140625 934.832031 382.621094 935 C 386.097656 935.164062 389.578125 935.246094 393.058594 935.242188 C 396.539062 935.242188 400.019531 935.152344 403.496094 934.976562 C 406.976562 934.800781 410.445312 934.542969 413.910156 934.199219 C 417.375 933.851562 420.828125 933.421875 424.273438 932.910156 C 427.714844 932.394531 431.144531 931.796875 434.558594 931.113281 C 437.972656 930.429688 441.367188 929.664062 444.746094 928.8125 C 448.121094 927.964844 451.472656 927.03125 454.804688 926.019531 C 458.136719 925.003906 461.441406 923.910156 464.714844 922.734375 C 467.992188 921.554688 471.238281 920.300781 474.453125 918.964844 C 477.671875 917.628906 480.851562 916.214844 483.996094 914.722656 C 487.144531 913.230469 490.25 911.664062 493.320312 910.019531 C 496.386719 908.375 499.414062 906.65625 502.398438 904.863281 C 505.382812 903.070312 508.320312 901.203125 511.214844 899.265625 C 514.109375 897.328125 516.953125 895.320312 519.746094 893.246094 C 522.539062 891.167969 525.28125 889.023438 527.972656 886.8125 C 530.660156 884.601562 533.292969 882.324219 535.871094 879.984375 C 538.449219 877.640625 540.964844 875.238281 543.425781 872.773438 C 545.882812 870.308594 548.28125 867.785156 550.617188 865.203125 C 552.953125 862.621094 555.222656 859.984375 557.429688 857.289062 C 559.636719 854.597656 561.773438 851.851562 563.84375 849.050781 C 565.917969 846.253906 567.917969 843.40625 569.847656 840.507812 C 571.78125 837.613281 573.640625 834.667969 575.425781 831.679688 C 577.210938 828.691406 578.925781 825.664062 580.5625 822.589844 C 582.199219 819.519531 583.761719 816.40625 585.246094 813.257812 C 586.734375 810.109375 588.140625 806.925781 589.46875 803.707031 C 590.796875 800.488281 592.046875 797.242188 593.21875 793.960938 C 594.386719 790.683594 595.476562 787.375 596.480469 784.042969 C 597.488281 780.710938 598.414062 777.355469 599.257812 773.976562 C 600.097656 770.597656 600.859375 767.203125 601.535156 763.785156 C 602.210938 760.371094 602.800781 756.941406 603.308594 753.496094 C 603.816406 750.050781 604.238281 746.597656 604.574219 743.132812 C 604.914062 739.664062 605.164062 736.195312 605.332031 732.714844 C 605.5 729.238281 605.582031 725.757812 605.578125 722.277344 C 605.574219 718.792969 605.484375 715.3125 605.3125 711.835938 C 605.136719 708.355469 604.875 704.882812 604.53125 701.417969 C 604.1875 697.953125 603.757812 694.496094 603.242188 691.050781 C 602.730469 687.605469 602.128906 684.175781 601.449219 680.761719 C 600.765625 677.347656 600 673.949219 599.148438 670.570312 C 598.300781 667.195312 597.367188 663.839844 596.355469 660.507812 C 595.339844 657.175781 594.246094 653.867188 593.070312 650.589844 C 591.894531 647.3125 590.636719 644.0625 589.300781 640.847656 C 587.96875 637.628906 586.554688 634.449219 585.0625 631.300781 C 583.570312 628.152344 582.003906 625.042969 580.359375 621.972656 C 578.714844 618.902344 576.996094 615.875 575.203125 612.886719 C 573.410156 609.902344 571.546875 606.960938 569.609375 604.066406 C 567.671875 601.171875 565.664062 598.328125 563.589844 595.53125 C 561.511719 592.734375 559.367188 589.992188 557.15625 587.300781 C 554.945312 584.609375 552.671875 581.972656 550.328125 579.394531 C 547.988281 576.8125 545.585938 574.292969 543.121094 571.832031 C 540.660156 569.371094 538.136719 566.972656 535.554688 564.632812 C 532.972656 562.296875 530.332031 560.023438 527.640625 557.8125 C 524.945312 555.605469 522.199219 553.464844 519.402344 551.390625 C 516.605469 549.316406 513.757812 547.3125 510.859375 545.378906 C 507.960938 543.445312 505.019531 541.582031 502.03125 539.792969 C 499.042969 538.003906 496.015625 536.289062 492.941406 534.648438 C 489.871094 533.007812 486.757812 531.441406 483.609375 529.953125 C 480.460938 528.464844 477.277344 527.054688 474.058594 525.722656 C 470.839844 524.390625 467.589844 523.140625 464.3125 521.96875 C 461.03125 520.792969 457.726562 519.703125 454.390625 518.691406 C 451.058594 517.683594 447.703125 516.753906 444.324219 515.910156 C 440.945312 515.0625 437.546875 514.300781 434.132812 513.621094 C 430.714844 512.941406 427.285156 512.347656 423.839844 511.835938 C 420.394531 511.324219 416.9375 510.898438 413.472656 510.558594 C 410.003906 510.21875 406.53125 509.960938 403.054688 509.789062 C 399.574219 509.621094 396.09375 509.535156 392.609375 509.535156 Z M 392.609375 509.757812 " fill-opacity="1" fill-rule="nonzero"/></svg>